<?xml version="1.0" encoding="utf-8" standalone="no"?>
<!DOCTYPE svg PUBLIC "-//W3C//DTD SVG 1.1//EN"
  "http://www.w3.org/Graphics/SVG/1.1/DTD/svg11.dtd">
<svg xmlns:xlink="http://www.w3.org/1999/xlink" width="720pt" height="432pt" viewBox="0 0 720 432" xmlns="http://www.w3.org/2000/svg" version="1.1">
 <metadata>
  <rdf:RDF xmlns:dc="http://purl.org/dc/elements/1.1/" xmlns:cc="http://creativecommons.org/ns#" xmlns:rdf="http://www.w3.org/1999/02/22-rdf-syntax-ns#">
   <cc:Work>
    <dc:type rdf:resource="http://purl.org/dc/dcmitype/StillImage"/>
    <dc:date>2024-08-31T13:48:59.868742</dc:date>
    <dc:format>image/svg+xml</dc:format>
    <dc:creator>
     <cc:Agent>
      <dc:title>Matplotlib v3.7.1, https://matplotlib.org/</dc:title>
     </cc:Agent>
    </dc:creator>
   </cc:Work>
  </rdf:RDF>
 </metadata>
 <defs>
  <style type="text/css">*{stroke-linejoin: round; stroke-linecap: butt}</style>
 </defs>
 <g id="figure_1">
  <g id="patch_1">
   <path d="M 0 432 
L 720 432 
L 720 0 
L 0 0 
z
" style="fill: #ffffff"/>
  </g>
  <g id="axes_1">
   <g id="patch_2">
    <path d="M 90 384.48 
L 648 384.48 
L 648 51.84 
L 90 51.84 
z
" style="fill: #ffffff"/>
   </g>
   <g id="matplotlib.axis_1">
    <g id="xtick_1">
     <g id="line2d_1">
      <defs>
       <path id="m5f1f83e091" d="M 0 0 
L 0 3.5 
" style="stroke: #000000; stroke-width: 0.8"/>
      </defs>
      <g>
       <use xlink:href="#m5f1f83e091" x="125.847904" y="384.48" style="stroke: #000000; stroke-width: 0.8"/>
      </g>
     </g>
     <g id="text_1">
      <!-- 600 -->
      <g transform="translate(116.304154 399.078438) scale(0.1 -0.1)">
       <defs>
        <path id="DejaVuSans-36" d="M 2113 2584 
Q 1688 2584 1439 2293 
Q 1191 2003 1191 1497 
Q 1191 994 1439 701 
Q 1688 409 2113 409 
Q 2538 409 2786 701 
Q 3034 994 3034 1497 
Q 3034 2003 2786 2293 
Q 2538 2584 2113 2584 
z
M 3366 4563 
L 3366 3988 
Q 3128 4100 2886 4159 
Q 2644 4219 2406 4219 
Q 1781 4219 1451 3797 
Q 1122 3375 1075 2522 
Q 1259 2794 1537 2939 
Q 1816 3084 2150 3084 
Q 2853 3084 3261 2657 
Q 3669 2231 3669 1497 
Q 3669 778 3244 343 
Q 2819 -91 2113 -91 
Q 1303 -91 875 529 
Q 447 1150 447 2328 
Q 447 3434 972 4092 
Q 1497 4750 2381 4750 
Q 2619 4750 2861 4703 
Q 3103 4656 3366 4563 
z
" transform="scale(0.015625)"/>
        <path id="DejaVuSans-30" d="M 2034 4250 
Q 1547 4250 1301 3770 
Q 1056 3291 1056 2328 
Q 1056 1369 1301 889 
Q 1547 409 2034 409 
Q 2525 409 2770 889 
Q 3016 1369 3016 2328 
Q 3016 3291 2770 3770 
Q 2525 4250 2034 4250 
z
M 2034 4750 
Q 2819 4750 3233 4129 
Q 3647 3509 3647 2328 
Q 3647 1150 3233 529 
Q 2819 -91 2034 -91 
Q 1250 -91 836 529 
Q 422 1150 422 2328 
Q 422 3509 836 4129 
Q 1250 4750 2034 4750 
z
" transform="scale(0.015625)"/>
       </defs>
       <use xlink:href="#DejaVuSans-36"/>
       <use xlink:href="#DejaVuSans-30" x="63.623047"/>
       <use xlink:href="#DejaVuSans-30" x="127.246094"/>
      </g>
     </g>
    </g>
    <g id="xtick_2">
     <g id="line2d_2">
      <g>
       <use xlink:href="#m5f1f83e091" x="210.405267" y="384.48" style="stroke: #000000; stroke-width: 0.8"/>
      </g>
     </g>
     <g id="text_2">
      <!-- 602 -->
      <g transform="translate(200.861517 399.078438) scale(0.1 -0.1)">
       <defs>
        <path id="DejaVuSans-32" d="M 1228 531 
L 3431 531 
L 3431 0 
L 469 0 
L 469 531 
Q 828 903 1448 1529 
Q 2069 2156 2228 2338 
Q 2531 2678 2651 2914 
Q 2772 3150 2772 3378 
Q 2772 3750 2511 3984 
Q 2250 4219 1831 4219 
Q 1534 4219 1204 4116 
Q 875 4013 500 3803 
L 500 4441 
Q 881 4594 1212 4672 
Q 1544 4750 1819 4750 
Q 2544 4750 2975 4387 
Q 3406 4025 3406 3419 
Q 3406 3131 3298 2873 
Q 3191 2616 2906 2266 
Q 2828 2175 2409 1742 
Q 1991 1309 1228 531 
z
" transform="scale(0.015625)"/>
       </defs>
       <use xlink:href="#DejaVuSans-36"/>
       <use xlink:href="#DejaVuSans-30" x="63.623047"/>
       <use xlink:href="#DejaVuSans-32" x="127.246094"/>
      </g>
     </g>
    </g>
    <g id="xtick_3">
     <g id="line2d_3">
      <g>
       <use xlink:href="#m5f1f83e091" x="294.96263" y="384.48" style="stroke: #000000; stroke-width: 0.8"/>
      </g>
     </g>
     <g id="text_3">
      <!-- 604 -->
      <g transform="translate(285.41888 399.078438) scale(0.1 -0.1)">
       <defs>
        <path id="DejaVuSans-34" d="M 2419 4116 
L 825 1625 
L 2419 1625 
L 2419 4116 
z
M 2253 4666 
L 3047 4666 
L 3047 1625 
L 3713 1625 
L 3713 1100 
L 3047 1100 
L 3047 0 
L 2419 0 
L 2419 1100 
L 313 1100 
L 313 1709 
L 2253 4666 
z
" transform="scale(0.015625)"/>
       </defs>
       <use xlink:href="#DejaVuSans-36"/>
       <use xlink:href="#DejaVuSans-30" x="63.623047"/>
       <use xlink:href="#DejaVuSans-34" x="127.246094"/>
      </g>
     </g>
    </g>
    <g id="xtick_4">
     <g id="line2d_4">
      <g>
       <use xlink:href="#m5f1f83e091" x="379.519993" y="384.48" style="stroke: #000000; stroke-width: 0.8"/>
      </g>
     </g>
     <g id="text_4">
      <!-- 606 -->
      <g transform="translate(369.976243 399.078438) scale(0.1 -0.1)">
       <use xlink:href="#DejaVuSans-36"/>
       <use xlink:href="#DejaVuSans-30" x="63.623047"/>
       <use xlink:href="#DejaVuSans-36" x="127.246094"/>
      </g>
     </g>
    </g>
    <g id="xtick_5">
     <g id="line2d_5">
      <g>
       <use xlink:href="#m5f1f83e091" x="464.077356" y="384.48" style="stroke: #000000; stroke-width: 0.8"/>
      </g>
     </g>
     <g id="text_5">
      <!-- 608 -->
      <g transform="translate(454.533606 399.078438) scale(0.1 -0.1)">
       <defs>
        <path id="DejaVuSans-38" d="M 2034 2216 
Q 1584 2216 1326 1975 
Q 1069 1734 1069 1313 
Q 1069 891 1326 650 
Q 1584 409 2034 409 
Q 2484 409 2743 651 
Q 3003 894 3003 1313 
Q 3003 1734 2745 1975 
Q 2488 2216 2034 2216 
z
M 1403 2484 
Q 997 2584 770 2862 
Q 544 3141 544 3541 
Q 544 4100 942 4425 
Q 1341 4750 2034 4750 
Q 2731 4750 3128 4425 
Q 3525 4100 3525 3541 
Q 3525 3141 3298 2862 
Q 3072 2584 2669 2484 
Q 3125 2378 3379 2068 
Q 3634 1759 3634 1313 
Q 3634 634 3220 271 
Q 2806 -91 2034 -91 
Q 1263 -91 848 271 
Q 434 634 434 1313 
Q 434 1759 690 2068 
Q 947 2378 1403 2484 
z
M 1172 3481 
Q 1172 3119 1398 2916 
Q 1625 2713 2034 2713 
Q 2441 2713 2670 2916 
Q 2900 3119 2900 3481 
Q 2900 3844 2670 4047 
Q 2441 4250 2034 4250 
Q 1625 4250 1398 4047 
Q 1172 3844 1172 3481 
z
" transform="scale(0.015625)"/>
       </defs>
       <use xlink:href="#DejaVuSans-36"/>
       <use xlink:href="#DejaVuSans-30" x="63.623047"/>
       <use xlink:href="#DejaVuSans-38" x="127.246094"/>
      </g>
     </g>
    </g>
    <g id="xtick_6">
     <g id="line2d_6">
      <g>
       <use xlink:href="#m5f1f83e091" x="548.634719" y="384.48" style="stroke: #000000; stroke-width: 0.8"/>
      </g>
     </g>
     <g id="text_6">
      <!-- 610 -->
      <g transform="translate(539.090969 399.078438) scale(0.1 -0.1)">
       <defs>
        <path id="DejaVuSans-31" d="M 794 531 
L 1825 531 
L 1825 4091 
L 703 3866 
L 703 4441 
L 1819 4666 
L 2450 4666 
L 2450 531 
L 3481 531 
L 3481 0 
L 794 0 
L 794 531 
z
" transform="scale(0.015625)"/>
       </defs>
       <use xlink:href="#DejaVuSans-36"/>
       <use xlink:href="#DejaVuSans-31" x="63.623047"/>
       <use xlink:href="#DejaVuSans-30" x="127.246094"/>
      </g>
     </g>
    </g>
    <g id="xtick_7">
     <g id="line2d_7">
      <g>
       <use xlink:href="#m5f1f83e091" x="633.192082" y="384.48" style="stroke: #000000; stroke-width: 0.8"/>
      </g>
     </g>
     <g id="text_7">
      <!-- 612 -->
      <g transform="translate(623.648332 399.078438) scale(0.1 -0.1)">
       <use xlink:href="#DejaVuSans-36"/>
       <use xlink:href="#DejaVuSans-31" x="63.623047"/>
       <use xlink:href="#DejaVuSans-32" x="127.246094"/>
      </g>
     </g>
    </g>
    <g id="text_8">
     <!-- Wavelength (nm) -->
     <g transform="translate(325.807813 412.756563) scale(0.1 -0.1)">
      <defs>
       <path id="DejaVuSans-57" d="M 213 4666 
L 850 4666 
L 1831 722 
L 2809 4666 
L 3519 4666 
L 4500 722 
L 5478 4666 
L 6119 4666 
L 4947 0 
L 4153 0 
L 3169 4050 
L 2175 0 
L 1381 0 
L 213 4666 
z
" transform="scale(0.015625)"/>
       <path id="DejaVuSans-61" d="M 2194 1759 
Q 1497 1759 1228 1600 
Q 959 1441 959 1056 
Q 959 750 1161 570 
Q 1363 391 1709 391 
Q 2188 391 2477 730 
Q 2766 1069 2766 1631 
L 2766 1759 
L 2194 1759 
z
M 3341 1997 
L 3341 0 
L 2766 0 
L 2766 531 
Q 2569 213 2275 61 
Q 1981 -91 1556 -91 
Q 1019 -91 701 211 
Q 384 513 384 1019 
Q 384 1609 779 1909 
Q 1175 2209 1959 2209 
L 2766 2209 
L 2766 2266 
Q 2766 2663 2505 2880 
Q 2244 3097 1772 3097 
Q 1472 3097 1187 3025 
Q 903 2953 641 2809 
L 641 3341 
Q 956 3463 1253 3523 
Q 1550 3584 1831 3584 
Q 2591 3584 2966 3190 
Q 3341 2797 3341 1997 
z
" transform="scale(0.015625)"/>
       <path id="DejaVuSans-76" d="M 191 3500 
L 800 3500 
L 1894 563 
L 2988 3500 
L 3597 3500 
L 2284 0 
L 1503 0 
L 191 3500 
z
" transform="scale(0.015625)"/>
       <path id="DejaVuSans-65" d="M 3597 1894 
L 3597 1613 
L 953 1613 
Q 991 1019 1311 708 
Q 1631 397 2203 397 
Q 2534 397 2845 478 
Q 3156 559 3463 722 
L 3463 178 
Q 3153 47 2828 -22 
Q 2503 -91 2169 -91 
Q 1331 -91 842 396 
Q 353 884 353 1716 
Q 353 2575 817 3079 
Q 1281 3584 2069 3584 
Q 2775 3584 3186 3129 
Q 3597 2675 3597 1894 
z
M 3022 2063 
Q 3016 2534 2758 2815 
Q 2500 3097 2075 3097 
Q 1594 3097 1305 2825 
Q 1016 2553 972 2059 
L 3022 2063 
z
" transform="scale(0.015625)"/>
       <path id="DejaVuSans-6c" d="M 603 4863 
L 1178 4863 
L 1178 0 
L 603 0 
L 603 4863 
z
" transform="scale(0.015625)"/>
       <path id="DejaVuSans-6e" d="M 3513 2113 
L 3513 0 
L 2938 0 
L 2938 2094 
Q 2938 2591 2744 2837 
Q 2550 3084 2163 3084 
Q 1697 3084 1428 2787 
Q 1159 2491 1159 1978 
L 1159 0 
L 581 0 
L 581 3500 
L 1159 3500 
L 1159 2956 
Q 1366 3272 1645 3428 
Q 1925 3584 2291 3584 
Q 2894 3584 3203 3211 
Q 3513 2838 3513 2113 
z
" transform="scale(0.015625)"/>
       <path id="DejaVuSans-67" d="M 2906 1791 
Q 2906 2416 2648 2759 
Q 2391 3103 1925 3103 
Q 1463 3103 1205 2759 
Q 947 2416 947 1791 
Q 947 1169 1205 825 
Q 1463 481 1925 481 
Q 2391 481 2648 825 
Q 2906 1169 2906 1791 
z
M 3481 434 
Q 3481 -459 3084 -895 
Q 2688 -1331 1869 -1331 
Q 1566 -1331 1297 -1286 
Q 1028 -1241 775 -1147 
L 775 -588 
Q 1028 -725 1275 -790 
Q 1522 -856 1778 -856 
Q 2344 -856 2625 -561 
Q 2906 -266 2906 331 
L 2906 616 
Q 2728 306 2450 153 
Q 2172 0 1784 0 
Q 1141 0 747 490 
Q 353 981 353 1791 
Q 353 2603 747 3093 
Q 1141 3584 1784 3584 
Q 2172 3584 2450 3431 
Q 2728 3278 2906 2969 
L 2906 3500 
L 3481 3500 
L 3481 434 
z
" transform="scale(0.015625)"/>
       <path id="DejaVuSans-74" d="M 1172 4494 
L 1172 3500 
L 2356 3500 
L 2356 3053 
L 1172 3053 
L 1172 1153 
Q 1172 725 1289 603 
Q 1406 481 1766 481 
L 2356 481 
L 2356 0 
L 1766 0 
Q 1100 0 847 248 
Q 594 497 594 1153 
L 594 3053 
L 172 3053 
L 172 3500 
L 594 3500 
L 594 4494 
L 1172 4494 
z
" transform="scale(0.015625)"/>
       <path id="DejaVuSans-68" d="M 3513 2113 
L 3513 0 
L 2938 0 
L 2938 2094 
Q 2938 2591 2744 2837 
Q 2550 3084 2163 3084 
Q 1697 3084 1428 2787 
Q 1159 2491 1159 1978 
L 1159 0 
L 581 0 
L 581 4863 
L 1159 4863 
L 1159 2956 
Q 1366 3272 1645 3428 
Q 1925 3584 2291 3584 
Q 2894 3584 3203 3211 
Q 3513 2838 3513 2113 
z
" transform="scale(0.015625)"/>
       <path id="DejaVuSans-20" transform="scale(0.015625)"/>
       <path id="DejaVuSans-28" d="M 1984 4856 
Q 1566 4138 1362 3434 
Q 1159 2731 1159 2009 
Q 1159 1288 1364 580 
Q 1569 -128 1984 -844 
L 1484 -844 
Q 1016 -109 783 600 
Q 550 1309 550 2009 
Q 550 2706 781 3412 
Q 1013 4119 1484 4856 
L 1984 4856 
z
" transform="scale(0.015625)"/>
       <path id="DejaVuSans-6d" d="M 3328 2828 
Q 3544 3216 3844 3400 
Q 4144 3584 4550 3584 
Q 5097 3584 5394 3201 
Q 5691 2819 5691 2113 
L 5691 0 
L 5113 0 
L 5113 2094 
Q 5113 2597 4934 2840 
Q 4756 3084 4391 3084 
Q 3944 3084 3684 2787 
Q 3425 2491 3425 1978 
L 3425 0 
L 2847 0 
L 2847 2094 
Q 2847 2600 2669 2842 
Q 2491 3084 2119 3084 
Q 1678 3084 1418 2786 
Q 1159 2488 1159 1978 
L 1159 0 
L 581 0 
L 581 3500 
L 1159 3500 
L 1159 2956 
Q 1356 3278 1631 3431 
Q 1906 3584 2284 3584 
Q 2666 3584 2933 3390 
Q 3200 3197 3328 2828 
z
" transform="scale(0.015625)"/>
       <path id="DejaVuSans-29" d="M 513 4856 
L 1013 4856 
Q 1481 4119 1714 3412 
Q 1947 2706 1947 2009 
Q 1947 1309 1714 600 
Q 1481 -109 1013 -844 
L 513 -844 
Q 928 -128 1133 580 
Q 1338 1288 1338 2009 
Q 1338 2731 1133 3434 
Q 928 4138 513 4856 
z
" transform="scale(0.015625)"/>
      </defs>
      <use xlink:href="#DejaVuSans-57"/>
      <use xlink:href="#DejaVuSans-61" x="92.501953"/>
      <use xlink:href="#DejaVuSans-76" x="153.78125"/>
      <use xlink:href="#DejaVuSans-65" x="212.960938"/>
      <use xlink:href="#DejaVuSans-6c" x="274.484375"/>
      <use xlink:href="#DejaVuSans-65" x="302.267578"/>
      <use xlink:href="#DejaVuSans-6e" x="363.791016"/>
      <use xlink:href="#DejaVuSans-67" x="427.169922"/>
      <use xlink:href="#DejaVuSans-74" x="490.646484"/>
      <use xlink:href="#DejaVuSans-68" x="529.855469"/>
      <use xlink:href="#DejaVuSans-20" x="593.234375"/>
      <use xlink:href="#DejaVuSans-28" x="625.021484"/>
      <use xlink:href="#DejaVuSans-6e" x="664.035156"/>
      <use xlink:href="#DejaVuSans-6d" x="727.414062"/>
      <use xlink:href="#DejaVuSans-29" x="824.826172"/>
     </g>
    </g>
   </g>
   <g id="matplotlib.axis_2">
    <g id="ytick_1">
     <g id="line2d_8">
      <defs>
       <path id="mf29f2609c9" d="M 0 0 
L -3.5 0 
" style="stroke: #000000; stroke-width: 0.8"/>
      </defs>
      <g>
       <use xlink:href="#mf29f2609c9" x="90" y="369.200204" style="stroke: #000000; stroke-width: 0.8"/>
      </g>
     </g>
     <g id="text_9">
      <!-- 0 -->
      <g transform="translate(76.6375 372.999423) scale(0.1 -0.1)">
       <use xlink:href="#DejaVuSans-30"/>
      </g>
     </g>
    </g>
    <g id="ytick_2">
     <g id="line2d_9">
      <g>
       <use xlink:href="#mf29f2609c9" x="90" y="302.618673" style="stroke: #000000; stroke-width: 0.8"/>
      </g>
     </g>
     <g id="text_10">
      <!-- 5000 -->
      <g transform="translate(57.55 306.417892) scale(0.1 -0.1)">
       <defs>
        <path id="DejaVuSans-35" d="M 691 4666 
L 3169 4666 
L 3169 4134 
L 1269 4134 
L 1269 2991 
Q 1406 3038 1543 3061 
Q 1681 3084 1819 3084 
Q 2600 3084 3056 2656 
Q 3513 2228 3513 1497 
Q 3513 744 3044 326 
Q 2575 -91 1722 -91 
Q 1428 -91 1123 -41 
Q 819 9 494 109 
L 494 744 
Q 775 591 1075 516 
Q 1375 441 1709 441 
Q 2250 441 2565 725 
Q 2881 1009 2881 1497 
Q 2881 1984 2565 2268 
Q 2250 2553 1709 2553 
Q 1456 2553 1204 2497 
Q 953 2441 691 2322 
L 691 4666 
z
" transform="scale(0.015625)"/>
       </defs>
       <use xlink:href="#DejaVuSans-35"/>
       <use xlink:href="#DejaVuSans-30" x="63.623047"/>
       <use xlink:href="#DejaVuSans-30" x="127.246094"/>
       <use xlink:href="#DejaVuSans-30" x="190.869141"/>
      </g>
     </g>
    </g>
    <g id="ytick_3">
     <g id="line2d_10">
      <g>
       <use xlink:href="#mf29f2609c9" x="90" y="236.037141" style="stroke: #000000; stroke-width: 0.8"/>
      </g>
     </g>
     <g id="text_11">
      <!-- 10000 -->
      <g transform="translate(51.1875 239.83636) scale(0.1 -0.1)">
       <use xlink:href="#DejaVuSans-31"/>
       <use xlink:href="#DejaVuSans-30" x="63.623047"/>
       <use xlink:href="#DejaVuSans-30" x="127.246094"/>
       <use xlink:href="#DejaVuSans-30" x="190.869141"/>
       <use xlink:href="#DejaVuSans-30" x="254.492188"/>
      </g>
     </g>
    </g>
    <g id="ytick_4">
     <g id="line2d_11">
      <g>
       <use xlink:href="#mf29f2609c9" x="90" y="169.45561" style="stroke: #000000; stroke-width: 0.8"/>
      </g>
     </g>
     <g id="text_12">
      <!-- 15000 -->
      <g transform="translate(51.1875 173.254828) scale(0.1 -0.1)">
       <use xlink:href="#DejaVuSans-31"/>
       <use xlink:href="#DejaVuSans-35" x="63.623047"/>
       <use xlink:href="#DejaVuSans-30" x="127.246094"/>
       <use xlink:href="#DejaVuSans-30" x="190.869141"/>
       <use xlink:href="#DejaVuSans-30" x="254.492188"/>
      </g>
     </g>
    </g>
    <g id="ytick_5">
     <g id="line2d_12">
      <g>
       <use xlink:href="#mf29f2609c9" x="90" y="102.874078" style="stroke: #000000; stroke-width: 0.8"/>
      </g>
     </g>
     <g id="text_13">
      <!-- 20000 -->
      <g transform="translate(51.1875 106.673297) scale(0.1 -0.1)">
       <use xlink:href="#DejaVuSans-32"/>
       <use xlink:href="#DejaVuSans-30" x="63.623047"/>
       <use xlink:href="#DejaVuSans-30" x="127.246094"/>
       <use xlink:href="#DejaVuSans-30" x="190.869141"/>
       <use xlink:href="#DejaVuSans-30" x="254.492188"/>
      </g>
     </g>
    </g>
    <g id="text_14">
     <!-- Signal (a.u.) -->
     <g transform="translate(45.107812 248.420937) rotate(-90) scale(0.1 -0.1)">
      <defs>
       <path id="DejaVuSans-53" d="M 3425 4513 
L 3425 3897 
Q 3066 4069 2747 4153 
Q 2428 4238 2131 4238 
Q 1616 4238 1336 4038 
Q 1056 3838 1056 3469 
Q 1056 3159 1242 3001 
Q 1428 2844 1947 2747 
L 2328 2669 
Q 3034 2534 3370 2195 
Q 3706 1856 3706 1288 
Q 3706 609 3251 259 
Q 2797 -91 1919 -91 
Q 1588 -91 1214 -16 
Q 841 59 441 206 
L 441 856 
Q 825 641 1194 531 
Q 1563 422 1919 422 
Q 2459 422 2753 634 
Q 3047 847 3047 1241 
Q 3047 1584 2836 1778 
Q 2625 1972 2144 2069 
L 1759 2144 
Q 1053 2284 737 2584 
Q 422 2884 422 3419 
Q 422 4038 858 4394 
Q 1294 4750 2059 4750 
Q 2388 4750 2728 4690 
Q 3069 4631 3425 4513 
z
" transform="scale(0.015625)"/>
       <path id="DejaVuSans-69" d="M 603 3500 
L 1178 3500 
L 1178 0 
L 603 0 
L 603 3500 
z
M 603 4863 
L 1178 4863 
L 1178 4134 
L 603 4134 
L 603 4863 
z
" transform="scale(0.015625)"/>
       <path id="DejaVuSans-2e" d="M 684 794 
L 1344 794 
L 1344 0 
L 684 0 
L 684 794 
z
" transform="scale(0.015625)"/>
       <path id="DejaVuSans-75" d="M 544 1381 
L 544 3500 
L 1119 3500 
L 1119 1403 
Q 1119 906 1312 657 
Q 1506 409 1894 409 
Q 2359 409 2629 706 
Q 2900 1003 2900 1516 
L 2900 3500 
L 3475 3500 
L 3475 0 
L 2900 0 
L 2900 538 
Q 2691 219 2414 64 
Q 2138 -91 1772 -91 
Q 1169 -91 856 284 
Q 544 659 544 1381 
z
M 1991 3584 
L 1991 3584 
z
" transform="scale(0.015625)"/>
      </defs>
      <use xlink:href="#DejaVuSans-53"/>
      <use xlink:href="#DejaVuSans-69" x="63.476562"/>
      <use xlink:href="#DejaVuSans-67" x="91.259766"/>
      <use xlink:href="#DejaVuSans-6e" x="154.736328"/>
      <use xlink:href="#DejaVuSans-61" x="218.115234"/>
      <use xlink:href="#DejaVuSans-6c" x="279.394531"/>
      <use xlink:href="#DejaVuSans-20" x="307.177734"/>
      <use xlink:href="#DejaVuSans-28" x="338.964844"/>
      <use xlink:href="#DejaVuSans-61" x="377.978516"/>
      <use xlink:href="#DejaVuSans-2e" x="439.257812"/>
      <use xlink:href="#DejaVuSans-75" x="471.044922"/>
      <use xlink:href="#DejaVuSans-2e" x="534.423828"/>
      <use xlink:href="#DejaVuSans-29" x="566.210938"/>
     </g>
    </g>
   </g>
   <g id="line2d_13">
    <path d="M 115.363636 369.146939 
L 116.672584 369.120306 
L 116.999821 369.226837 
L 117.654295 369.120306 
L 118.636006 369.160255 
L 118.962821 369.040409 
L 119.290058 369.346684 
L 119.944532 369.173572 
L 120.92582 369.213521 
L 121.252634 369.093674 
L 123.214788 369.213521 
L 123.542025 369.133623 
L 123.868839 369.226837 
L 124.52289 369.240153 
L 125.176518 369.200204 
L 126.157384 369.067041 
L 126.811012 369.320051 
L 127.137826 369.053725 
L 127.791455 369.213521 
L 128.118269 369.080358 
L 128.771897 369.266786 
L 129.098712 369.173572 
L 129.425526 369.266786 
L 129.75234 369.027092 
L 130.405546 369.027092 
L 130.73236 369.160255 
L 132.6924 369.040409 
L 133.019214 369.306735 
L 133.672419 369.200204 
L 133.998811 369.226837 
L 134.325202 369.120306 
L 134.978408 369.160255 
L 135.305222 369.10699 
L 135.631613 369.213521 
L 136.284396 369.133623 
L 136.611211 369.186888 
L 136.937602 369.10699 
L 137.590385 369.133623 
L 138.243168 369.160255 
L 139.222342 369.10699 
L 139.548733 369.320051 
L 140.854299 369.10699 
L 141.506659 369.213521 
L 142.159442 369.186888 
L 142.811802 369.213521 
L 143.138193 369.053725 
L 143.790553 369.226837 
L 144.116522 369.293418 
L 144.768882 369.093674 
L 145.095274 369.186888 
L 145.421242 369.160255 
L 145.747634 369.25347 
L 146.073602 369.053725 
L 146.399571 369.25347 
L 146.725962 369.160255 
L 147.703868 369.226837 
L 148.029837 369.133623 
L 149.008166 369.213521 
L 149.334134 369.146939 
L 150.31204 369.213521 
L 151.94146 369.146939 
L 152.267429 369.25347 
L 152.593398 369.067041 
L 153.570881 369.226837 
L 153.896427 369.333367 
L 154.548364 369.053725 
L 154.87391 369.200204 
L 156.828453 369.213521 
L 157.153999 369.146939 
L 158.131059 369.213521 
L 160.735849 369.133623 
L 161.061395 369.266786 
L 163.665339 369.226837 
L 164.316008 369.173572 
L 164.641554 369.133623 
L 164.966677 369.240153 
L 166.268437 369.160255 
L 166.919106 369.293418 
L 167.244229 369.200204 
L 167.569352 369.226837 
L 167.894898 369.053725 
L 168.220021 369.186888 
L 169.195813 369.146939 
L 169.520936 369.280102 
L 170.496728 369.213521 
L 171.472097 369.240153 
L 172.122344 369.200204 
L 172.447467 369.10699 
L 173.097713 369.280102 
L 173.747536 369.067041 
L 174.722482 369.240153 
L 175.047605 369.173572 
L 176.022552 369.320051 
L 176.997498 369.146939 
L 177.647322 369.25347 
L 178.297145 369.053725 
L 178.621845 369.266786 
L 178.946546 369.146939 
L 179.271669 369.240153 
L 180.895593 369.160255 
L 181.220293 369.240153 
L 181.544993 369.120306 
L 182.194394 369.266786 
L 182.843794 369.160255 
L 183.817895 369.240153 
L 186.090374 369.160255 
L 186.414652 369.093674 
L 186.739352 369.293418 
L 187.06363 369.160255 
L 187.38833 369.320051 
L 187.71303 369.186888 
L 188.686285 369.240153 
L 189.010563 369.067041 
L 189.335263 369.280102 
L 189.659541 369.280102 
L 189.984241 369.120306 
L 190.957073 369.240153 
L 191.281774 369.146939 
L 191.606051 369.173572 
L 191.930329 369.040409 
L 192.254606 369.213521 
L 192.578884 369.213521 
L 192.903161 369.040409 
L 193.227439 369.226837 
L 193.551716 369.173572 
L 193.875994 369.280102 
L 194.200271 369.200204 
L 194.848826 369.266786 
L 195.173103 369.120306 
L 197.4422 369.186888 
L 197.766478 369.10699 
L 198.738465 369.173572 
L 199.386597 369.160255 
L 199.710874 369.213521 
L 200.034729 369.120306 
L 200.682861 369.240153 
L 202.302558 369.200204 
L 202.626835 369.040409 
L 202.95069 369.200204 
L 203.598399 369.200204 
L 204.246109 369.040409 
L 204.893818 369.240153 
L 205.865382 369.240153 
L 206.189237 369.346684 
L 206.836523 369.10699 
L 207.160378 369.280102 
L 207.484233 369.053725 
L 207.807665 369.200204 
L 208.131519 369.067041 
L 208.778806 369.213521 
L 209.749947 369.146939 
L 213.632821 369.160255 
L 213.956253 369.293418 
L 214.279685 369.160255 
L 217.514004 369.280102 
L 217.837436 369.146939 
L 218.807309 369.240153 
L 219.130318 369.213521 
L 219.45375 369.053725 
L 220.100191 369.186888 
L 220.423623 369.146939 
L 220.746632 369.266786 
L 221.070064 369.200204 
L 221.716505 369.213521 
L 222.362524 369.10699 
L 223.008965 369.320051 
L 223.331974 369.160255 
L 224.624433 369.293418 
L 224.947442 369.093674 
L 226.239479 369.173572 
L 226.885497 369.240153 
L 227.208506 369.093674 
L 227.531515 369.226837 
L 228.177533 369.186888 
L 228.500543 369.293418 
L 228.823129 369.160255 
L 229.146138 369.25347 
L 229.469147 369.160255 
L 230.437752 369.306735 
L 230.760338 369.120306 
L 232.051529 369.173572 
L 233.34272 369.173572 
L 233.665306 369.053725 
L 234.633488 369.293418 
L 234.956074 369.067041 
L 235.279084 369.240153 
L 235.924256 369.160255 
L 238.182361 369.146939 
L 238.504947 369.25347 
L 239.472283 369.133623 
L 240.117456 369.186888 
L 240.439619 369.133623 
L 240.762206 369.226837 
L 241.406956 369.146939 
L 243.019042 369.280102 
L 243.663792 369.133623 
L 245.597619 369.10699 
L 245.919782 369.266786 
L 246.564109 369.133623 
L 246.886273 369.213521 
L 247.5306 369.067041 
L 248.497091 369.226837 
L 248.819254 369.10699 
L 249.141418 369.226837 
L 249.785745 369.053725 
L 250.107908 369.160255 
L 250.429649 369.133623 
L 251.39614 368.401226 
L 251.71788 366.590208 
L 252.040044 360.611187 
L 252.683948 311.673761 
L 253.006112 330.023631 
L 253.327853 359.359454 
L 253.650016 367.482401 
L 253.971757 368.561022 
L 254.615661 368.933878 
L 254.937402 368.973827 
L 255.259566 369.133623 
L 255.581306 369.093674 
L 255.903047 369.213521 
L 256.224788 369.040409 
L 256.868692 369.120306 
L 259.442618 369.25347 
L 262.016122 369.080358 
L 262.65918 369.25347 
L 263.302239 369.213521 
L 263.62398 369.226837 
L 263.945298 369.10699 
L 264.588357 369.186888 
L 265.231415 369.160255 
L 265.552733 369.173572 
L 265.874474 369.306735 
L 266.838851 369.173572 
L 269.0885 369.226837 
L 269.409818 369.146939 
L 270.052454 369.186888 
L 271.658621 369.213521 
L 275.512745 369.10699 
L 276.154536 369.146939 
L 279.364756 369.226837 
L 280.006546 369.120306 
L 280.648337 369.266786 
L 281.290127 369.160255 
L 286.742809 369.200204 
L 287.063281 369.306735 
L 288.025121 369.160255 
L 288.346016 369.240153 
L 288.986961 369.146939 
L 289.307433 369.226837 
L 290.269273 369.160255 
L 290.910218 369.10699 
L 291.230691 369.213521 
L 291.551163 369.080358 
L 291.871635 369.293418 
L 292.192108 369.146939 
L 293.153102 369.25347 
L 294.755042 369.213521 
L 305.638843 369.226837 
L 305.958892 369.093674 
L 306.598569 369.240153 
L 306.918618 369.266786 
L 307.238245 369.067041 
L 307.877922 369.213521 
L 308.837225 369.146939 
L 309.157274 369.266786 
L 309.476901 369.266786 
L 309.796528 369.093674 
L 312.993219 369.160255 
L 313.9521 369.067041 
L 314.591353 369.226837 
L 320.341254 369.160255 
L 320.660458 369.040409 
L 320.979662 369.226837 
L 321.298866 369.146939 
L 321.618493 369.226837 
L 322.256901 369.093674 
L 322.895309 369.226837 
L 323.214513 369.173572 
L 323.533717 369.266786 
L 323.852921 369.160255 
L 324.491329 369.213521 
L 324.810533 369.160255 
L 325.129738 369.240153 
L 325.448519 369.173572 
L 325.767723 369.320051 
L 326.406131 369.25347 
L 326.724912 369.293418 
L 327.36332 369.133623 
L 328.001306 369.226837 
L 328.320087 369.146939 
L 329.277276 369.226837 
L 329.596057 369.120306 
L 330.234043 369.25347 
L 330.553247 369.040409 
L 330.872028 369.173572 
L 331.828795 369.10699 
L 332.147576 369.053725 
L 332.466357 369.25347 
L 333.10392 369.200204 
L 334.697826 369.146939 
L 336.291732 369.200204 
L 336.610091 369.093674 
L 337.566434 369.213521 
L 337.884793 369.027092 
L 338.203574 369.160255 
L 339.796635 369.25347 
L 340.114993 369.293418 
L 340.433775 369.186888 
L 340.752133 369.240153 
L 341.389273 369.186888 
L 342.02599 369.093674 
L 342.344348 369.213521 
L 342.66313 369.080358 
L 343.936563 369.293418 
L 344.254922 369.080358 
L 344.891639 369.186888 
L 345.209997 369.240153 
L 345.528356 369.080358 
L 346.165073 369.226837 
L 346.80179 369.160255 
L 347.756442 369.173572 
L 348.074801 369.280102 
L 352.210501 369.186888 
L 352.52886 369.240153 
L 353.164731 369.10699 
L 353.482667 369.25347 
L 353.801025 369.133623 
L 355.072768 369.186888 
L 356.662447 369.226837 
L 357.298318 369.213521 
L 357.933767 369.186888 
L 358.569638 369.146939 
L 358.887151 369.293418 
L 359.205086 369.027092 
L 359.840535 369.213521 
L 360.475984 369.120306 
L 363.335291 369.266786 
L 363.652804 369.093674 
L 364.288252 369.293418 
L 365.240791 369.146939 
L 366.828356 369.320051 
L 367.145868 369.10699 
L 367.463381 369.226837 
L 368.73301 369.173572 
L 369.368036 369.213521 
L 370.954755 369.226837 
L 371.272268 369.093674 
L 371.589358 369.200204 
L 372.223961 369.10699 
L 372.541051 369.240153 
L 372.858564 369.040409 
L 373.492744 369.266786 
L 373.810257 369.306735 
L 374.76195 369.080358 
L 375.07904 369.280102 
L 375.39613 369.320051 
L 376.030311 369.067041 
L 376.347401 369.200204 
L 376.981581 369.040409 
L 377.298671 369.200204 
L 377.615761 369.133623 
L 378.884122 369.25347 
L 379.200789 369.240153 
L 379.517879 369.080358 
L 379.834969 369.280102 
L 381.419574 369.25347 
L 381.736664 369.25347 
L 382.053332 369.133623 
L 382.370422 369.25347 
L 382.687089 369.133623 
L 383.004179 369.320051 
L 383.954604 369.053725 
L 384.271271 369.280102 
L 385.538363 369.133623 
L 385.855031 369.280102 
L 386.488788 369.133623 
L 389.971706 369.25347 
L 390.288373 369.146939 
L 391.237952 369.25347 
L 392.820443 369.040409 
L 393.136688 369.25347 
L 393.7696 369.240153 
L 394.085844 369.067041 
L 394.718756 369.333367 
L 395.351668 369.173572 
L 395.667913 369.120306 
L 395.984157 369.240153 
L 396.300402 369.10699 
L 396.933313 369.293418 
L 397.249558 369.093674 
L 398.198292 369.027092 
L 398.514536 369.186888 
L 399.46327 369.146939 
L 399.779514 369.160255 
L 400.095336 369.346684 
L 400.727825 369.146939 
L 402.940691 369.200204 
L 403.256513 369.280102 
L 403.572758 369.093674 
L 403.888579 369.213521 
L 404.204824 369.133623 
L 404.836467 369.213521 
L 405.784355 369.10699 
L 407.363887 369.226837 
L 407.995953 369.173572 
L 408.311775 369.226837 
L 408.627597 369.093674 
L 408.943419 369.266786 
L 409.25924 369.053725 
L 410.522105 369.240153 
L 411.153748 369.160255 
L 413.679054 369.093674 
L 414.310274 369.240153 
L 414.626096 369.200204 
L 414.941495 369.293418 
L 415.572716 369.133623 
L 416.834734 369.213521 
L 417.465955 369.120306 
L 418.096753 369.200204 
L 418.727551 369.186888 
L 419.989147 369.146939 
L 420.304546 369.067041 
L 420.619945 369.200204 
L 420.935344 369.146939 
L 421.566142 369.280102 
L 422.511916 369.160255 
L 423.142291 369.240153 
L 424.71844 369.266786 
L 425.033839 369.120306 
L 425.348815 369.240153 
L 425.663792 369.133623 
L 425.97919 369.226837 
L 426.609566 369.133623 
L 428.814822 369.186888 
L 429.129798 369.053725 
L 429.444774 369.226837 
L 430.389703 369.133623 
L 430.704679 369.200204 
L 431.334631 369.067041 
L 431.649607 369.040409 
L 431.964583 369.293418 
L 432.594113 369.133623 
L 432.909089 369.240153 
L 433.853595 369.067041 
L 436.371713 369.053725 
L 437.001243 368.827348 
L 437.315796 368.947195 
L 437.945326 368.574338 
L 438.259879 367.535666 
L 438.574432 366.936432 
L 438.889409 362.901591 
L 439.203962 352.035485 
L 439.518515 306.986421 
L 439.833069 217.873699 
L 440.147622 210.349986 
L 440.462176 307.665553 
L 440.776729 357.242161 
L 441.091282 366.15077 
L 441.405836 367.975104 
L 441.720389 368.201481 
L 442.034943 368.694185 
L 444.550524 369.10699 
L 444.864655 369.00046 
L 445.179208 369.133623 
L 445.493339 369.027092 
L 445.807892 369.080358 
L 446.436576 369.040409 
L 446.750707 369.080358 
L 447.06526 368.973827 
L 447.379391 369.146939 
L 448.636336 368.907246 
L 449.26502 369.186888 
L 449.893281 369.10699 
L 450.207412 369.213521 
L 450.521542 369.067041 
L 450.835673 369.25347 
L 451.149804 369.280102 
L 451.778065 369.146939 
L 452.406326 369.133623 
L 453.034587 369.040409 
L 453.662426 369.266786 
L 453.976556 369.120306 
L 454.290687 369.186888 
L 454.604817 369.120306 
L 455.232656 369.173572 
L 457.744009 369.093674 
L 458.057717 369.00046 
L 458.371848 369.120306 
L 458.999264 369.146939 
L 459.312971 369.226837 
L 459.627102 369.093674 
L 459.94081 369.186888 
L 460.254518 369.146939 
L 460.568225 369.240153 
L 461.509349 369.173572 
L 461.823057 369.306735 
L 462.136764 369.160255 
L 462.450472 369.266786 
L 462.76418 369.133623 
L 464.019011 369.213521 
L 464.332296 369.10699 
L 464.646004 369.266786 
L 464.959712 369.200204 
L 465.27342 369.25347 
L 465.900413 369.146939 
L 466.213698 369.213521 
L 466.841113 369.160255 
L 468.094676 369.133623 
L 468.721669 369.213521 
L 469.348662 369.093674 
L 469.661947 369.200204 
L 470.288517 369.226837 
L 471.228795 369.346684 
L 471.54208 369.160255 
L 471.855365 369.25347 
L 472.481935 369.146939 
L 472.79522 369.213521 
L 473.108505 369.146939 
L 473.42179 369.226837 
L 473.735075 369.027092 
L 474.04836 369.173572 
L 478.431814 369.146939 
L 478.745099 369.00046 
L 479.371246 369.186888 
L 481.248842 369.133623 
L 481.561705 369.226837 
L 483.126016 369.10699 
L 483.438878 369.213521 
L 485.315629 369.160255 
L 485.941353 369.240153 
L 486.254216 369.160255 
L 486.879517 369.226837 
L 487.191957 369.133623 
L 487.504819 369.226837 
L 488.130121 369.226837 
L 489.380724 369.240153 
L 489.693164 369.133623 
L 490.006026 369.240153 
L 491.881085 369.160255 
L 492.818404 369.240153 
L 493.443283 369.133623 
L 493.755722 369.25347 
L 494.69304 369.027092 
L 495.00548 369.240153 
L 495.317919 369.133623 
L 498.128606 369.146939 
L 499.377518 369.093674 
L 500.313991 369.173572 
L 500.626008 369.067041 
L 500.938024 369.226837 
L 502.186514 369.173572 
L 503.435003 369.186888 
L 503.74702 369.10699 
L 504.059037 369.186888 
L 504.371053 369.120306 
L 504.68307 369.266786 
L 504.995087 369.146939 
L 505.306681 369.226837 
L 505.930714 369.093674 
L 506.554747 369.213521 
L 506.866341 369.133623 
L 507.490375 369.186888 
L 508.113985 369.040409 
L 508.426002 369.213521 
L 508.737596 369.133623 
L 509.673223 369.240153 
L 510.296411 369.120306 
L 510.608427 369.226837 
L 510.920021 369.120306 
L 511.543632 369.240153 
L 512.166819 369.093674 
L 512.478413 369.25347 
L 513.102024 369.160255 
L 513.413618 369.160255 
L 513.725212 369.280102 
L 514.036806 369.133623 
L 514.348399 369.186888 
L 514.659993 369.093674 
L 515.594775 369.226837 
L 515.906369 369.053725 
L 516.529134 369.120306 
L 516.840728 369.160255 
L 517.152322 369.080358 
L 517.463915 369.146939 
L 518.08668 369.120306 
L 518.397852 369.200204 
L 519.021039 368.973827 
L 519.33221 369.320051 
L 519.643804 369.36 
L 520.266569 369.080358 
L 520.57774 369.25347 
L 521.511676 369.10699 
L 522.134441 369.146939 
L 522.756784 369.00046 
L 523.379126 369.160255 
L 524.313062 369.013776 
L 524.624233 369.160255 
L 524.935404 369.080358 
L 525.246575 369.160255 
L 525.557746 369.013776 
L 526.490837 369.080358 
L 526.802008 368.987143 
L 527.113179 369.120306 
L 528.668612 368.827348 
L 528.97936 368.920562 
L 530.223199 368.161532 
L 530.53437 367.469085 
L 530.845118 365.524904 
L 531.156289 361.703124 
L 531.467038 349.758397 
L 531.777786 317.506303 
L 532.399705 66.96 
L 532.710454 167.964183 
L 533.021202 311.447384 
L 533.332373 358.134354 
L 533.643121 365.271894 
L 533.95387 367.349238 
L 534.264618 367.921839 
L 534.886115 368.334644 
L 535.818359 368.840664 
L 536.129108 368.720817 
L 536.750604 369.00046 
L 537.061353 368.840664 
L 537.372101 369.040409 
L 537.682427 368.933878 
L 537.993175 369.053725 
L 539.856819 369.080358 
L 540.167567 369.133623 
L 540.788641 369.080358 
L 541.409715 369.10699 
L 541.720041 368.947195 
L 542.030366 369.160255 
L 542.961766 369.240153 
L 544.20349 369.053725 
L 544.824141 369.040409 
L 545.134467 369.053725 
L 545.444792 369.213521 
L 546.065444 369.280102 
L 546.375769 369.10699 
L 546.686095 369.240153 
L 546.99642 369.146939 
L 547.617071 369.200204 
L 548.237299 369.160255 
L 548.547625 369.160255 
L 548.85795 369.280102 
L 549.478179 369.067041 
L 549.788504 369.067041 
L 550.098407 369.186888 
L 550.719058 369.240153 
L 551.028961 369.067041 
L 551.339286 369.173572 
L 551.649189 369.146939 
L 551.959092 369.306735 
L 552.269417 369.186888 
L 558.467895 369.226837 
L 558.777797 369.306735 
L 559.0877 369.160255 
L 561.255751 369.186888 
L 561.565654 369.133623 
L 561.875134 369.25347 
L 562.184614 369.133623 
L 566.209121 369.10699 
L 566.518601 369.25347 
L 567.137561 369.040409 
L 567.447041 369.146939 
L 568.066001 369.040409 
L 568.684961 369.173572 
L 578.888075 369.213521 
L 579.197132 369.053725 
L 579.814824 369.213521 
L 582.59507 369.25347 
L 582.903704 369.067041 
L 583.521396 369.226837 
L 584.139087 369.053725 
L 584.756356 369.306735 
L 585.991316 369.25347 
L 586.299951 369.133623 
L 586.91722 369.226837 
L 590.620409 369.120306 
L 590.928621 369.173572 
L 591.237255 369.027092 
L 591.854101 369.293418 
L 592.162736 369.173572 
L 592.470947 369.320051 
L 594.321485 369.293418 
L 594.629697 369.053725 
L 594.937908 369.173572 
L 595.24612 369.10699 
L 595.862966 369.280102 
L 596.171177 369.173572 
L 596.787601 369.226837 
L 598.020447 369.306735 
L 598.945082 369.146939 
L 599.561505 369.240153 
L 599.869716 369.093674 
L 600.177928 369.200204 
L 600.485717 369.080358 
L 601.409929 369.226837 
L 603.874353 369.133623 
L 604.182142 369.25347 
L 604.489931 369.160255 
L 604.798142 369.25347 
L 605.105931 369.080358 
L 605.41372 369.280102 
L 605.721509 369.200204 
L 606.645298 369.213521 
L 609.723186 369.186888 
L 610.030975 369.333367 
L 610.338764 369.160255 
L 610.64613 369.306735 
L 611.261707 369.25347 
L 611.569073 369.25347 
L 611.876862 369.10699 
L 612.184651 369.120306 
L 612.492017 369.266786 
L 613.107172 369.133623 
L 613.722326 369.093674 
L 614.030115 369.093674 
L 614.337481 369.226837 
L 614.952636 369.186888 
L 616.182523 369.146939 
L 616.489889 369.027092 
L 617.105044 369.173572 
L 617.719776 369.146939 
L 618.027142 369.25347 
L 618.334508 369.093674 
L 618.641874 369.240153 
L 618.94924 369.10699 
L 619.563972 369.160255 
L 619.871338 369.146939 
L 620.485647 369.25347 
L 620.793013 369.186888 
L 621.100379 369.266786 
L 621.407745 369.160255 
L 622.022054 369.173572 
L 622.636364 369.213521 
L 622.636364 369.213521 
" clip-path="url(#p6a8363c70c)" style="fill: none; stroke: #1f77b4; stroke-width: 1.5; stroke-linecap: square"/>
   </g>
   <g id="patch_3">
    <path d="M 90 384.48 
L 90 51.84 
" style="fill: none; stroke: #000000; stroke-width: 0.8; stroke-linejoin: miter; stroke-linecap: square"/>
   </g>
   <g id="patch_4">
    <path d="M 648 384.48 
L 648 51.84 
" style="fill: none; stroke: #000000; stroke-width: 0.8; stroke-linejoin: miter; stroke-linecap: square"/>
   </g>
   <g id="patch_5">
    <path d="M 90 384.48 
L 648 384.48 
" style="fill: none; stroke: #000000; stroke-width: 0.8; stroke-linejoin: miter; stroke-linecap: square"/>
   </g>
   <g id="patch_6">
    <path d="M 90 51.84 
L 648 51.84 
" style="fill: none; stroke: #000000; stroke-width: 0.8; stroke-linejoin: miter; stroke-linecap: square"/>
   </g>
  </g>
 </g>
 <defs>
  <clipPath id="p6a8363c70c">
   <rect x="90" y="51.84" width="558" height="332.64"/>
  </clipPath>
 </defs>
</svg>
